<mxfile host="app.diagrams.net" agent="Mozilla/5.0 (Windows NT 10.0; Win64; x64) AppleWebKit/537.36 (KHTML, like Gecko) Chrome/136.0.0.0 Safari/537.36" version="27.0.9" pages="2">
  <diagram name="NIVEL 0" id="PTCJVemOLY9-pOezK2eS">
    <mxGraphModel dx="2134" dy="596" grid="1" gridSize="10" guides="1" tooltips="1" connect="1" arrows="1" fold="1" page="1" pageScale="1" pageWidth="827" pageHeight="1169" math="0" shadow="0">
      <root>
        <mxCell id="0" />
        <mxCell id="1" parent="0" />
        <mxCell id="hDsFrdSwKS_vQNClyYp9-1" value="&lt;b&gt;&lt;font style=&quot;font-size: 18px;&quot;&gt;SISTEMA DE VENTA DE LADRILLOS&lt;/font&gt;&lt;/b&gt;" style="ellipse;whiteSpace=wrap;html=1;" parent="1" vertex="1">
          <mxGeometry x="270" y="300" width="210" height="180" as="geometry" />
        </mxCell>
        <mxCell id="hDsFrdSwKS_vQNClyYp9-2" value="CLIENTE" style="rounded=0;whiteSpace=wrap;html=1;" parent="1" vertex="1">
          <mxGeometry x="-100" y="100" width="120" height="60" as="geometry" />
        </mxCell>
        <mxCell id="hDsFrdSwKS_vQNClyYp9-3" value="VENDEDROR CAJERO" style="rounded=0;whiteSpace=wrap;html=1;" parent="1" vertex="1">
          <mxGeometry x="-130" y="300" width="120" height="90" as="geometry" />
        </mxCell>
        <mxCell id="hDsFrdSwKS_vQNClyYp9-4" value="ADMINISTRADOR DEL SISTEMA" style="rounded=0;whiteSpace=wrap;html=1;" parent="1" vertex="1">
          <mxGeometry x="-130" y="540" width="120" height="60" as="geometry" />
        </mxCell>
        <mxCell id="hDsFrdSwKS_vQNClyYp9-5" value="PROVEEDOR" style="rounded=0;whiteSpace=wrap;html=1;" parent="1" vertex="1">
          <mxGeometry x="-115" y="738" width="120" height="60" as="geometry" />
        </mxCell>
        <mxCell id="hDsFrdSwKS_vQNClyYp9-6" value="TRANSPORTISTA REPARTIDOR" style="rounded=0;whiteSpace=wrap;html=1;" parent="1" vertex="1">
          <mxGeometry x="680" y="77" width="120" height="60" as="geometry" />
        </mxCell>
        <mxCell id="hDsFrdSwKS_vQNClyYp9-7" value="SISTEMA DE INVENTARIO ALMACEN" style="rounded=0;whiteSpace=wrap;html=1;" parent="1" vertex="1">
          <mxGeometry x="760" y="276" width="120" height="60" as="geometry" />
        </mxCell>
        <mxCell id="hDsFrdSwKS_vQNClyYp9-8" value="ENTIDAD FINANCIERA" style="rounded=0;whiteSpace=wrap;html=1;" parent="1" vertex="1">
          <mxGeometry x="760" y="496" width="120" height="60" as="geometry" />
        </mxCell>
        <mxCell id="hDsFrdSwKS_vQNClyYp9-9" value="ENTIDAD GUBERNAMENTAL" style="rounded=0;whiteSpace=wrap;html=1;" parent="1" vertex="1">
          <mxGeometry x="810" y="738" width="120" height="60" as="geometry" />
        </mxCell>
        <mxCell id="hDsFrdSwKS_vQNClyYp9-10" value="" style="endArrow=classic;html=1;rounded=0;exitX=1;exitY=1;exitDx=0;exitDy=0;" parent="1" source="hDsFrdSwKS_vQNClyYp9-2" edge="1">
          <mxGeometry width="50" height="50" relative="1" as="geometry">
            <mxPoint x="70" y="180" as="sourcePoint" />
            <mxPoint x="340" y="300" as="targetPoint" />
            <Array as="points">
              <mxPoint x="260" y="160" />
            </Array>
          </mxGeometry>
        </mxCell>
        <mxCell id="hDsFrdSwKS_vQNClyYp9-11" value="" style="endArrow=classic;html=1;rounded=0;exitX=1;exitY=1;exitDx=0;exitDy=0;entryX=0.381;entryY=0;entryDx=0;entryDy=0;entryPerimeter=0;" parent="1" target="hDsFrdSwKS_vQNClyYp9-1" edge="1">
          <mxGeometry width="50" height="50" relative="1" as="geometry">
            <mxPoint x="20" y="140" as="sourcePoint" />
            <mxPoint x="328" y="290" as="targetPoint" />
            <Array as="points">
              <mxPoint x="260" y="140" />
            </Array>
          </mxGeometry>
        </mxCell>
        <mxCell id="hDsFrdSwKS_vQNClyYp9-12" value="" style="endArrow=classic;html=1;rounded=0;exitX=1;exitY=1;exitDx=0;exitDy=0;entryX=0.429;entryY=0;entryDx=0;entryDy=0;entryPerimeter=0;" parent="1" target="hDsFrdSwKS_vQNClyYp9-1" edge="1">
          <mxGeometry width="50" height="50" relative="1" as="geometry">
            <mxPoint x="20" y="120" as="sourcePoint" />
            <mxPoint x="350" y="280" as="targetPoint" />
            <Array as="points">
              <mxPoint x="260" y="120" />
            </Array>
          </mxGeometry>
        </mxCell>
        <mxCell id="hDsFrdSwKS_vQNClyYp9-13" value="" style="endArrow=classic;html=1;rounded=0;exitX=1;exitY=1;exitDx=0;exitDy=0;entryX=0.5;entryY=0;entryDx=0;entryDy=0;" parent="1" target="hDsFrdSwKS_vQNClyYp9-1" edge="1">
          <mxGeometry width="50" height="50" relative="1" as="geometry">
            <mxPoint x="21" y="102" as="sourcePoint" />
            <mxPoint x="351" y="262" as="targetPoint" />
            <Array as="points">
              <mxPoint x="261" y="102" />
            </Array>
          </mxGeometry>
        </mxCell>
        <mxCell id="hDsFrdSwKS_vQNClyYp9-14" value="" style="endArrow=classic;html=1;rounded=0;exitX=0.3;exitY=0.022;exitDx=0;exitDy=0;exitPerimeter=0;entryX=0.867;entryY=1.05;entryDx=0;entryDy=0;entryPerimeter=0;" parent="1" source="hDsFrdSwKS_vQNClyYp9-1" target="hDsFrdSwKS_vQNClyYp9-2" edge="1">
          <mxGeometry width="50" height="50" relative="1" as="geometry">
            <mxPoint x="-70" y="250" as="sourcePoint" />
            <mxPoint x="-20" y="200" as="targetPoint" />
            <Array as="points">
              <mxPoint x="260" y="190" />
              <mxPoint x="20" y="190" />
            </Array>
          </mxGeometry>
        </mxCell>
        <mxCell id="hDsFrdSwKS_vQNClyYp9-16" value="" style="endArrow=classic;html=1;rounded=0;entryX=0.867;entryY=1.05;entryDx=0;entryDy=0;entryPerimeter=0;" parent="1" source="hDsFrdSwKS_vQNClyYp9-1" edge="1">
          <mxGeometry width="50" height="50" relative="1" as="geometry">
            <mxPoint x="309" y="300" as="sourcePoint" />
            <mxPoint x="-20" y="159" as="targetPoint" />
            <Array as="points">
              <mxPoint x="260" y="210" />
              <mxPoint x="10" y="210" />
            </Array>
          </mxGeometry>
        </mxCell>
        <mxCell id="hDsFrdSwKS_vQNClyYp9-17" value="" style="endArrow=classic;html=1;rounded=0;entryX=0.575;entryY=1.033;entryDx=0;entryDy=0;entryPerimeter=0;" parent="1" source="hDsFrdSwKS_vQNClyYp9-1" target="hDsFrdSwKS_vQNClyYp9-2" edge="1">
          <mxGeometry width="50" height="50" relative="1" as="geometry">
            <mxPoint x="315" y="332" as="sourcePoint" />
            <mxPoint x="-30" y="180" as="targetPoint" />
            <Array as="points">
              <mxPoint x="260" y="231" />
              <mxPoint y="231" />
            </Array>
          </mxGeometry>
        </mxCell>
        <mxCell id="hDsFrdSwKS_vQNClyYp9-18" value="" style="endArrow=classic;html=1;rounded=0;entryX=0.575;entryY=1.033;entryDx=0;entryDy=0;entryPerimeter=0;exitX=0.195;exitY=0.083;exitDx=0;exitDy=0;exitPerimeter=0;" parent="1" source="hDsFrdSwKS_vQNClyYp9-1" edge="1">
          <mxGeometry width="50" height="50" relative="1" as="geometry">
            <mxPoint x="301" y="312" as="sourcePoint" />
            <mxPoint x="-50" y="160" as="targetPoint" />
            <Array as="points">
              <mxPoint x="260" y="250" />
              <mxPoint x="-10" y="250" />
            </Array>
          </mxGeometry>
        </mxCell>
        <mxCell id="hDsFrdSwKS_vQNClyYp9-19" value="" style="endArrow=classic;html=1;rounded=0;exitX=0.5;exitY=0;exitDx=0;exitDy=0;entryX=0;entryY=0;entryDx=0;entryDy=0;" parent="1" source="hDsFrdSwKS_vQNClyYp9-3" target="hDsFrdSwKS_vQNClyYp9-1" edge="1">
          <mxGeometry width="50" height="50" relative="1" as="geometry">
            <mxPoint x="-40" y="290" as="sourcePoint" />
            <mxPoint x="130" y="380" as="targetPoint" />
            <Array as="points">
              <mxPoint x="-60" y="280" />
              <mxPoint x="60" y="280" />
              <mxPoint x="270" y="280" />
            </Array>
          </mxGeometry>
        </mxCell>
        <mxCell id="hDsFrdSwKS_vQNClyYp9-20" value="" style="endArrow=classic;html=1;rounded=0;exitX=1;exitY=0;exitDx=0;exitDy=0;" parent="1" source="hDsFrdSwKS_vQNClyYp9-3" edge="1">
          <mxGeometry width="50" height="50" relative="1" as="geometry">
            <mxPoint y="300" as="sourcePoint" />
            <mxPoint x="290" y="340" as="targetPoint" />
            <Array as="points">
              <mxPoint x="50" y="300" />
              <mxPoint x="260" y="300" />
            </Array>
          </mxGeometry>
        </mxCell>
        <mxCell id="hDsFrdSwKS_vQNClyYp9-21" value="" style="endArrow=classic;html=1;rounded=0;exitX=1;exitY=0;exitDx=0;exitDy=0;" parent="1" edge="1">
          <mxGeometry width="50" height="50" relative="1" as="geometry">
            <mxPoint x="-10" y="320" as="sourcePoint" />
            <mxPoint x="280" y="350" as="targetPoint" />
            <Array as="points">
              <mxPoint x="50" y="320" />
              <mxPoint x="260" y="320" />
            </Array>
          </mxGeometry>
        </mxCell>
        <mxCell id="hDsFrdSwKS_vQNClyYp9-22" value="" style="endArrow=classic;html=1;rounded=0;exitX=1;exitY=0;exitDx=0;exitDy=0;entryX=0.024;entryY=0.328;entryDx=0;entryDy=0;entryPerimeter=0;" parent="1" target="hDsFrdSwKS_vQNClyYp9-1" edge="1">
          <mxGeometry width="50" height="50" relative="1" as="geometry">
            <mxPoint x="-10" y="340" as="sourcePoint" />
            <mxPoint x="280" y="370" as="targetPoint" />
            <Array as="points">
              <mxPoint x="50" y="340" />
              <mxPoint x="260" y="340" />
            </Array>
          </mxGeometry>
        </mxCell>
        <mxCell id="hDsFrdSwKS_vQNClyYp9-23" value="" style="endArrow=classic;html=1;rounded=0;entryX=1.008;entryY=0.667;entryDx=0;entryDy=0;entryPerimeter=0;" parent="1" target="hDsFrdSwKS_vQNClyYp9-3" edge="1">
          <mxGeometry width="50" height="50" relative="1" as="geometry">
            <mxPoint x="270" y="360" as="sourcePoint" />
            <mxPoint x="110" y="440" as="targetPoint" />
          </mxGeometry>
        </mxCell>
        <mxCell id="hDsFrdSwKS_vQNClyYp9-24" value="" style="endArrow=classic;html=1;rounded=0;entryX=1.008;entryY=0.667;entryDx=0;entryDy=0;entryPerimeter=0;" parent="1" edge="1">
          <mxGeometry width="50" height="50" relative="1" as="geometry">
            <mxPoint x="269" y="380" as="sourcePoint" />
            <mxPoint x="-10" y="380" as="targetPoint" />
          </mxGeometry>
        </mxCell>
        <mxCell id="hDsFrdSwKS_vQNClyYp9-25" value="" style="endArrow=classic;html=1;rounded=0;entryX=1.008;entryY=0.667;entryDx=0;entryDy=0;entryPerimeter=0;" parent="1" edge="1">
          <mxGeometry width="50" height="50" relative="1" as="geometry">
            <mxPoint x="269" y="400" as="sourcePoint" />
            <mxPoint x="-10" y="400" as="targetPoint" />
          </mxGeometry>
        </mxCell>
        <mxCell id="hDsFrdSwKS_vQNClyYp9-26" value="" style="endArrow=classic;html=1;rounded=0;entryX=0.65;entryY=1.022;entryDx=0;entryDy=0;entryPerimeter=0;" parent="1" target="hDsFrdSwKS_vQNClyYp9-3" edge="1">
          <mxGeometry width="50" height="50" relative="1" as="geometry">
            <mxPoint x="275" y="420" as="sourcePoint" />
            <mxPoint x="-4" y="420" as="targetPoint" />
            <Array as="points">
              <mxPoint x="-30" y="420" />
            </Array>
          </mxGeometry>
        </mxCell>
        <mxCell id="hDsFrdSwKS_vQNClyYp9-27" value="" style="endArrow=classic;html=1;rounded=0;" parent="1" edge="1">
          <mxGeometry width="50" height="50" relative="1" as="geometry">
            <mxPoint x="-103.63" y="538.82" as="sourcePoint" />
            <mxPoint x="280.00145166146524" y="430.0013619783909" as="targetPoint" />
            <Array as="points">
              <mxPoint x="-88.63" y="458.82" />
              <mxPoint x="231.37" y="458.82" />
            </Array>
          </mxGeometry>
        </mxCell>
        <mxCell id="hDsFrdSwKS_vQNClyYp9-28" value="" style="endArrow=classic;html=1;rounded=0;" parent="1" edge="1">
          <mxGeometry width="50" height="50" relative="1" as="geometry">
            <mxPoint x="-90" y="540" as="sourcePoint" />
            <mxPoint x="283" y="440" as="targetPoint" />
            <Array as="points">
              <mxPoint x="-75" y="477.8186380216091" />
              <mxPoint x="245" y="477.8186380216091" />
            </Array>
          </mxGeometry>
        </mxCell>
        <mxCell id="hDsFrdSwKS_vQNClyYp9-29" value="" style="endArrow=classic;html=1;rounded=0;entryX=0.105;entryY=0.828;entryDx=0;entryDy=0;entryPerimeter=0;" parent="1" target="hDsFrdSwKS_vQNClyYp9-1" edge="1">
          <mxGeometry width="50" height="50" relative="1" as="geometry">
            <mxPoint x="-80" y="540" as="sourcePoint" />
            <mxPoint x="303.63145166146523" y="460" as="targetPoint" />
            <Array as="points">
              <mxPoint x="-65" y="500" />
              <mxPoint x="250" y="500" />
            </Array>
          </mxGeometry>
        </mxCell>
        <mxCell id="hDsFrdSwKS_vQNClyYp9-30" value="" style="endArrow=classic;html=1;rounded=0;entryX=0.5;entryY=0;entryDx=0;entryDy=0;" parent="1" source="hDsFrdSwKS_vQNClyYp9-1" target="hDsFrdSwKS_vQNClyYp9-4" edge="1">
          <mxGeometry width="50" height="50" relative="1" as="geometry">
            <mxPoint x="370" y="570" as="sourcePoint" />
            <mxPoint x="70" y="640" as="targetPoint" />
            <Array as="points">
              <mxPoint x="240" y="520" />
              <mxPoint x="-40" y="520" />
            </Array>
          </mxGeometry>
        </mxCell>
        <mxCell id="hDsFrdSwKS_vQNClyYp9-32" value="" style="endArrow=classic;html=1;rounded=0;entryX=1;entryY=0;entryDx=0;entryDy=0;" parent="1" source="hDsFrdSwKS_vQNClyYp9-1" target="hDsFrdSwKS_vQNClyYp9-4" edge="1">
          <mxGeometry width="50" height="50" relative="1" as="geometry">
            <mxPoint x="370" y="570" as="sourcePoint" />
            <mxPoint x="420" y="520" as="targetPoint" />
            <Array as="points">
              <mxPoint x="240" y="540" />
            </Array>
          </mxGeometry>
        </mxCell>
        <mxCell id="hDsFrdSwKS_vQNClyYp9-33" value="" style="endArrow=classic;html=1;rounded=0;entryX=1;entryY=0;entryDx=0;entryDy=0;exitX=0.224;exitY=0.939;exitDx=0;exitDy=0;exitPerimeter=0;" parent="1" source="hDsFrdSwKS_vQNClyYp9-1" edge="1">
          <mxGeometry width="50" height="50" relative="1" as="geometry">
            <mxPoint x="311" y="480" as="sourcePoint" />
            <mxPoint x="-10" y="559" as="targetPoint" />
            <Array as="points">
              <mxPoint x="240" y="559" />
            </Array>
          </mxGeometry>
        </mxCell>
        <mxCell id="hDsFrdSwKS_vQNClyYp9-34" value="" style="endArrow=classic;html=1;rounded=0;entryX=1;entryY=0;entryDx=0;entryDy=0;" parent="1" source="hDsFrdSwKS_vQNClyYp9-1" edge="1">
          <mxGeometry width="50" height="50" relative="1" as="geometry">
            <mxPoint x="317" y="490" as="sourcePoint" />
            <mxPoint x="-10" y="580" as="targetPoint" />
            <Array as="points">
              <mxPoint x="320" y="490" />
              <mxPoint x="240" y="580" />
            </Array>
          </mxGeometry>
        </mxCell>
        <mxCell id="hDsFrdSwKS_vQNClyYp9-35" value="&lt;font style=&quot;font-size: 14px;&quot;&gt;Solicitud de productos&lt;/font&gt;" style="text;html=1;align=center;verticalAlign=middle;whiteSpace=wrap;rounded=0;" parent="1" vertex="1">
          <mxGeometry x="60" y="90" width="150" height="10" as="geometry" />
        </mxCell>
        <mxCell id="hDsFrdSwKS_vQNClyYp9-36" value="&lt;font style=&quot;font-size: 14px;&quot;&gt;datos personales&lt;/font&gt;" style="text;html=1;align=center;verticalAlign=middle;whiteSpace=wrap;rounded=0;" parent="1" vertex="1">
          <mxGeometry x="52" y="108" width="150" height="10" as="geometry" />
        </mxCell>
        <mxCell id="hDsFrdSwKS_vQNClyYp9-41" value="&lt;font style=&quot;font-size: 14px;&quot;&gt;direccion de entrega&lt;/font&gt;" style="text;html=1;align=center;verticalAlign=middle;whiteSpace=wrap;rounded=0;" parent="1" vertex="1">
          <mxGeometry x="53" y="127" width="150" height="10" as="geometry" />
        </mxCell>
        <mxCell id="hDsFrdSwKS_vQNClyYp9-42" value="&lt;font style=&quot;font-size: 14px;&quot;&gt;comprobante de pago&lt;/font&gt;" style="text;html=1;align=center;verticalAlign=middle;whiteSpace=wrap;rounded=0;" parent="1" vertex="1">
          <mxGeometry x="52" y="146" width="150" height="10" as="geometry" />
        </mxCell>
        <mxCell id="hDsFrdSwKS_vQNClyYp9-49" value="&lt;font style=&quot;font-size: 14px;&quot;&gt;Factura&lt;/font&gt;" style="text;html=1;align=center;verticalAlign=middle;whiteSpace=wrap;rounded=0;" parent="1" vertex="1">
          <mxGeometry x="42" y="178" width="150" height="10" as="geometry" />
        </mxCell>
        <mxCell id="hDsFrdSwKS_vQNClyYp9-50" value="&lt;font style=&quot;font-size: 14px;&quot;&gt;Confirmacion del pedido&lt;/font&gt;" style="text;html=1;align=center;verticalAlign=middle;whiteSpace=wrap;rounded=0;" parent="1" vertex="1">
          <mxGeometry x="28" y="196" width="200" height="10" as="geometry" />
        </mxCell>
        <mxCell id="hDsFrdSwKS_vQNClyYp9-51" value="&lt;font style=&quot;font-size: 14px;&quot;&gt;Estado de entrega&lt;/font&gt;" style="text;html=1;align=center;verticalAlign=middle;whiteSpace=wrap;rounded=0;" parent="1" vertex="1">
          <mxGeometry x="40" y="217" width="150" height="10" as="geometry" />
        </mxCell>
        <mxCell id="hDsFrdSwKS_vQNClyYp9-52" value="&lt;font style=&quot;font-size: 14px;&quot;&gt;Recomendaciones o Promociones&lt;/font&gt;" style="text;html=1;align=center;verticalAlign=middle;whiteSpace=wrap;rounded=0;" parent="1" vertex="1">
          <mxGeometry x="5" y="236" width="240" height="10" as="geometry" />
        </mxCell>
        <mxCell id="hDsFrdSwKS_vQNClyYp9-53" value="&lt;span style=&quot;font-size: 14px;&quot;&gt;Registro de nueva venta&lt;/span&gt;" style="text;html=1;align=center;verticalAlign=middle;whiteSpace=wrap;rounded=0;" parent="1" vertex="1">
          <mxGeometry x="9" y="267" width="180" height="10" as="geometry" />
        </mxCell>
        <mxCell id="hDsFrdSwKS_vQNClyYp9-54" value="&lt;font style=&quot;font-size: 14px;&quot;&gt;Metodo de pago&lt;/font&gt;" style="text;html=1;align=center;verticalAlign=middle;whiteSpace=wrap;rounded=0;" parent="1" vertex="1">
          <mxGeometry x="24" y="286" width="150" height="10" as="geometry" />
        </mxCell>
        <mxCell id="hDsFrdSwKS_vQNClyYp9-55" value="&lt;font style=&quot;font-size: 14px;&quot;&gt;Datos del cliente&lt;/font&gt;" style="text;html=1;align=center;verticalAlign=middle;whiteSpace=wrap;rounded=0;" parent="1" vertex="1">
          <mxGeometry x="28" y="306" width="150" height="10" as="geometry" />
        </mxCell>
        <mxCell id="hDsFrdSwKS_vQNClyYp9-56" value="&lt;font style=&quot;font-size: 14px;&quot;&gt;Cantidad de productos solicitados&lt;/font&gt;" style="text;html=1;align=center;verticalAlign=middle;whiteSpace=wrap;rounded=0;" parent="1" vertex="1">
          <mxGeometry x="9" y="326" width="220" height="10" as="geometry" />
        </mxCell>
        <mxCell id="hDsFrdSwKS_vQNClyYp9-57" value="&lt;font style=&quot;font-size: 14px;&quot;&gt;Notificacion de Stock&lt;/font&gt;" style="text;html=1;align=center;verticalAlign=middle;whiteSpace=wrap;rounded=0;" parent="1" vertex="1">
          <mxGeometry x="34" y="387" width="150" height="10" as="geometry" />
        </mxCell>
        <mxCell id="hDsFrdSwKS_vQNClyYp9-58" value="&lt;font style=&quot;font-size: 14px;&quot;&gt;Estado de Pago&lt;/font&gt;" style="text;html=1;align=center;verticalAlign=middle;whiteSpace=wrap;rounded=0;" parent="1" vertex="1">
          <mxGeometry x="30" y="407" width="150" height="10" as="geometry" />
        </mxCell>
        <mxCell id="hDsFrdSwKS_vQNClyYp9-60" value="&lt;font style=&quot;font-size: 14px;&quot;&gt;Estado de inventario&lt;/font&gt;" style="text;html=1;align=center;verticalAlign=middle;whiteSpace=wrap;rounded=0;" parent="1" vertex="1">
          <mxGeometry x="9" y="526" width="150" height="10" as="geometry" />
        </mxCell>
        <mxCell id="hDsFrdSwKS_vQNClyYp9-61" value="&lt;font style=&quot;font-size: 14px;&quot;&gt;Estadisticas de Stock&lt;/font&gt;" style="text;html=1;align=center;verticalAlign=middle;whiteSpace=wrap;rounded=0;" parent="1" vertex="1">
          <mxGeometry x="12" y="546" width="150" height="10" as="geometry" />
        </mxCell>
        <mxCell id="hDsFrdSwKS_vQNClyYp9-62" value="&lt;font style=&quot;font-size: 14px;&quot;&gt;Alertas de Stock minimo&lt;/font&gt;" style="text;html=1;align=center;verticalAlign=middle;whiteSpace=wrap;rounded=0;" parent="1" vertex="1">
          <mxGeometry x="9" y="567" width="170" height="10" as="geometry" />
        </mxCell>
        <mxCell id="hDsFrdSwKS_vQNClyYp9-63" value="&lt;font style=&quot;font-size: 14px;&quot;&gt;Confirmacion de entrega&lt;/font&gt;" style="text;html=1;align=center;verticalAlign=middle;whiteSpace=wrap;rounded=0;" parent="1" vertex="1">
          <mxGeometry x="-38" y="616" width="230" height="10" as="geometry" />
        </mxCell>
        <mxCell id="hDsFrdSwKS_vQNClyYp9-64" value="&lt;font style=&quot;font-size: 14px;&quot;&gt;Comprobante de Venta&lt;/font&gt;" style="text;html=1;align=center;verticalAlign=middle;whiteSpace=wrap;rounded=0;" parent="1" vertex="1">
          <mxGeometry x="34" y="349" width="150" height="10" as="geometry" />
        </mxCell>
        <mxCell id="hDsFrdSwKS_vQNClyYp9-65" value="&lt;font style=&quot;font-size: 14px;&quot;&gt;Confirmacion de registro&lt;/font&gt;" style="text;html=1;align=center;verticalAlign=middle;whiteSpace=wrap;rounded=0;" parent="1" vertex="1">
          <mxGeometry x="17" y="366" width="190" height="10" as="geometry" />
        </mxCell>
        <mxCell id="hDsFrdSwKS_vQNClyYp9-66" value="&lt;font style=&quot;font-size: 14px;&quot;&gt;Factura del Proveedor&lt;/font&gt;" style="text;html=1;align=center;verticalAlign=middle;whiteSpace=wrap;rounded=0;" parent="1" vertex="1">
          <mxGeometry x="-2" y="637" width="150" height="10" as="geometry" />
        </mxCell>
        <mxCell id="hDsFrdSwKS_vQNClyYp9-67" value="&lt;font style=&quot;font-size: 14px;&quot;&gt;Catalogo de Productos&lt;/font&gt;" style="text;html=1;align=center;verticalAlign=middle;whiteSpace=wrap;rounded=0;" parent="1" vertex="1">
          <mxGeometry x="-2" y="657" width="150" height="10" as="geometry" />
        </mxCell>
        <mxCell id="hDsFrdSwKS_vQNClyYp9-68" value="&lt;font style=&quot;font-size: 14px;&quot;&gt;Datos del Contacto&lt;/font&gt;" style="text;html=1;align=center;verticalAlign=middle;whiteSpace=wrap;rounded=0;" parent="1" vertex="1">
          <mxGeometry x="-7" y="676" width="150" height="10" as="geometry" />
        </mxCell>
        <mxCell id="hDsFrdSwKS_vQNClyYp9-69" value="&lt;font style=&quot;font-size: 14px;&quot;&gt;Orden de Compra&lt;/font&gt;" style="text;html=1;align=center;verticalAlign=middle;whiteSpace=wrap;rounded=0;" parent="1" vertex="1">
          <mxGeometry x="14" y="708" width="150" height="10" as="geometry" />
        </mxCell>
        <mxCell id="hDsFrdSwKS_vQNClyYp9-70" value="&lt;font style=&quot;font-size: 14px;&quot;&gt;Registra modificacion de Productos&lt;/font&gt;" style="text;html=1;align=center;verticalAlign=middle;whiteSpace=wrap;rounded=0;" parent="1" vertex="1">
          <mxGeometry x="-37" y="445" width="240" height="10" as="geometry" />
        </mxCell>
        <mxCell id="hDsFrdSwKS_vQNClyYp9-71" value="&lt;font style=&quot;font-size: 14px;&quot;&gt;Gestion de Usuarios&lt;/font&gt;" style="text;html=1;align=center;verticalAlign=middle;whiteSpace=wrap;rounded=0;" parent="1" vertex="1">
          <mxGeometry y="465" width="150" height="10" as="geometry" />
        </mxCell>
        <mxCell id="hDsFrdSwKS_vQNClyYp9-72" value="&lt;font style=&quot;font-size: 14px;&quot;&gt;Consulta de reportes&lt;/font&gt;" style="text;html=1;align=center;verticalAlign=middle;whiteSpace=wrap;rounded=0;" parent="1" vertex="1">
          <mxGeometry x="5" y="488" width="150" height="10" as="geometry" />
        </mxCell>
        <mxCell id="hDsFrdSwKS_vQNClyYp9-73" value="&lt;font style=&quot;font-size: 14px;&quot;&gt;Reporte de ventas&lt;/font&gt;" style="text;html=1;align=center;verticalAlign=middle;whiteSpace=wrap;rounded=0;" parent="1" vertex="1">
          <mxGeometry x="3" y="508" width="150" height="10" as="geometry" />
        </mxCell>
        <mxCell id="hDsFrdSwKS_vQNClyYp9-74" value="" style="endArrow=classic;html=1;rounded=0;entryX=0.319;entryY=0.978;entryDx=0;entryDy=0;entryPerimeter=0;" parent="1" target="hDsFrdSwKS_vQNClyYp9-1" edge="1">
          <mxGeometry width="50" height="50" relative="1" as="geometry">
            <mxPoint x="-95" y="738" as="sourcePoint" />
            <mxPoint x="-45" y="688" as="targetPoint" />
            <Array as="points">
              <mxPoint x="-80" y="630" />
              <mxPoint x="240" y="630" />
            </Array>
          </mxGeometry>
        </mxCell>
        <mxCell id="hDsFrdSwKS_vQNClyYp9-75" value="" style="endArrow=classic;html=1;rounded=0;entryX=0.319;entryY=0.978;entryDx=0;entryDy=0;entryPerimeter=0;exitX=0.25;exitY=0;exitDx=0;exitDy=0;" parent="1" source="hDsFrdSwKS_vQNClyYp9-5" edge="1">
          <mxGeometry width="50" height="50" relative="1" as="geometry">
            <mxPoint x="-90" y="730" as="sourcePoint" />
            <mxPoint x="344" y="480" as="targetPoint" />
            <Array as="points">
              <mxPoint x="-73" y="650" />
              <mxPoint x="240" y="650" />
            </Array>
          </mxGeometry>
        </mxCell>
        <mxCell id="hDsFrdSwKS_vQNClyYp9-76" value="" style="endArrow=classic;html=1;rounded=0;entryX=0.405;entryY=1;entryDx=0;entryDy=0;entryPerimeter=0;exitX=0.367;exitY=-0.033;exitDx=0;exitDy=0;exitPerimeter=0;" parent="1" source="hDsFrdSwKS_vQNClyYp9-5" target="hDsFrdSwKS_vQNClyYp9-1" edge="1">
          <mxGeometry width="50" height="50" relative="1" as="geometry">
            <mxPoint x="5" y="804" as="sourcePoint" />
            <mxPoint x="434" y="546" as="targetPoint" />
            <Array as="points">
              <mxPoint x="-60" y="670" />
              <mxPoint x="240" y="670" />
            </Array>
          </mxGeometry>
        </mxCell>
        <mxCell id="hDsFrdSwKS_vQNClyYp9-77" value="" style="endArrow=classic;html=1;rounded=0;entryX=0.433;entryY=1.017;entryDx=0;entryDy=0;entryPerimeter=0;exitX=0.5;exitY=0;exitDx=0;exitDy=0;" parent="1" source="hDsFrdSwKS_vQNClyYp9-5" target="hDsFrdSwKS_vQNClyYp9-1" edge="1">
          <mxGeometry width="50" height="50" relative="1" as="geometry">
            <mxPoint x="-10" y="792" as="sourcePoint" />
            <mxPoint x="411" y="536" as="targetPoint" />
            <Array as="points">
              <mxPoint x="-50" y="690" />
              <mxPoint x="250" y="690" />
            </Array>
          </mxGeometry>
        </mxCell>
        <mxCell id="hDsFrdSwKS_vQNClyYp9-78" value="" style="endArrow=classic;html=1;rounded=0;exitX=0.5;exitY=1;exitDx=0;exitDy=0;" parent="1" source="hDsFrdSwKS_vQNClyYp9-1" edge="1">
          <mxGeometry width="50" height="50" relative="1" as="geometry">
            <mxPoint x="350" y="590" as="sourcePoint" />
            <mxPoint y="740" as="targetPoint" />
            <Array as="points">
              <mxPoint x="250" y="720" />
              <mxPoint y="720" />
            </Array>
          </mxGeometry>
        </mxCell>
        <mxCell id="hDsFrdSwKS_vQNClyYp9-79" value="" style="endArrow=classic;html=1;rounded=0;exitX=0.5;exitY=1;exitDx=0;exitDy=0;" parent="1" edge="1">
          <mxGeometry width="50" height="50" relative="1" as="geometry">
            <mxPoint x="380" y="480" as="sourcePoint" />
            <mxPoint x="5" y="740" as="targetPoint" />
            <Array as="points">
              <mxPoint x="255" y="740" />
            </Array>
          </mxGeometry>
        </mxCell>
        <mxCell id="hDsFrdSwKS_vQNClyYp9-80" value="" style="endArrow=classic;html=1;rounded=0;" parent="1" edge="1">
          <mxGeometry width="50" height="50" relative="1" as="geometry">
            <mxPoint x="380" y="480" as="sourcePoint" />
            <mxPoint x="5" y="758" as="targetPoint" />
            <Array as="points">
              <mxPoint x="270" y="760" />
            </Array>
          </mxGeometry>
        </mxCell>
        <mxCell id="hDsFrdSwKS_vQNClyYp9-81" value="" style="endArrow=classic;html=1;rounded=0;" parent="1" edge="1">
          <mxGeometry width="50" height="50" relative="1" as="geometry">
            <mxPoint x="380" y="480" as="sourcePoint" />
            <mxPoint x="5" y="780" as="targetPoint" />
            <Array as="points">
              <mxPoint x="280" y="780" />
            </Array>
          </mxGeometry>
        </mxCell>
        <mxCell id="hDsFrdSwKS_vQNClyYp9-82" value="&lt;font style=&quot;font-size: 14px;&quot;&gt;Requerimiento de Stock&lt;/font&gt;" style="text;html=1;align=center;verticalAlign=middle;whiteSpace=wrap;rounded=0;" parent="1" vertex="1">
          <mxGeometry x="24" y="727" width="180" height="10" as="geometry" />
        </mxCell>
        <mxCell id="hDsFrdSwKS_vQNClyYp9-83" value="&lt;font style=&quot;font-size: 14px;&quot;&gt;Notificacion de Pago&lt;/font&gt;" style="text;html=1;align=center;verticalAlign=middle;whiteSpace=wrap;rounded=0;" parent="1" vertex="1">
          <mxGeometry x="29" y="746" width="150" height="10" as="geometry" />
        </mxCell>
        <mxCell id="hDsFrdSwKS_vQNClyYp9-84" value="&lt;font style=&quot;font-size: 14px;&quot;&gt;Solicitud de Cotizacion&lt;/font&gt;" style="text;html=1;align=center;verticalAlign=middle;whiteSpace=wrap;rounded=0;" parent="1" vertex="1">
          <mxGeometry x="34" y="768" width="150" height="10" as="geometry" />
        </mxCell>
        <mxCell id="hDsFrdSwKS_vQNClyYp9-85" value="&lt;font style=&quot;font-size: 14px;&quot;&gt;Datos de entrega&lt;/font&gt;" style="text;html=1;align=center;verticalAlign=middle;whiteSpace=wrap;rounded=0;" parent="1" vertex="1">
          <mxGeometry x="466" y="70" width="150" height="10" as="geometry" />
        </mxCell>
        <mxCell id="hDsFrdSwKS_vQNClyYp9-86" value="&lt;font style=&quot;font-size: 14px;&quot;&gt;Ruta de entrega&lt;/font&gt;" style="text;html=1;align=center;verticalAlign=middle;whiteSpace=wrap;rounded=0;" parent="1" vertex="1">
          <mxGeometry x="467" y="88" width="150" height="10" as="geometry" />
        </mxCell>
        <mxCell id="hDsFrdSwKS_vQNClyYp9-87" value="&lt;font style=&quot;font-size: 14px;&quot;&gt;Confirmacion de carga&lt;/font&gt;" style="text;html=1;align=center;verticalAlign=middle;whiteSpace=wrap;rounded=0;" parent="1" vertex="1">
          <mxGeometry x="470" y="105" width="150" height="10" as="geometry" />
        </mxCell>
        <mxCell id="hDsFrdSwKS_vQNClyYp9-88" value="&lt;font style=&quot;font-size: 14px;&quot;&gt;Estado de vehiculo&lt;/font&gt;" style="text;html=1;align=center;verticalAlign=middle;whiteSpace=wrap;rounded=0;" parent="1" vertex="1">
          <mxGeometry x="472" y="124" width="150" height="10" as="geometry" />
        </mxCell>
        <mxCell id="hDsFrdSwKS_vQNClyYp9-89" value="&lt;font style=&quot;font-size: 14px;&quot;&gt;Confirmacion de entrega al cliente&lt;/font&gt;" style="text;html=1;align=center;verticalAlign=middle;whiteSpace=wrap;rounded=0;" parent="1" vertex="1">
          <mxGeometry x="454" y="137" width="220" height="28" as="geometry" />
        </mxCell>
        <mxCell id="hDsFrdSwKS_vQNClyYp9-90" value="&lt;font style=&quot;font-size: 14px;&quot;&gt;Estado de envio&lt;/font&gt;" style="text;html=1;align=center;verticalAlign=middle;whiteSpace=wrap;rounded=0;" parent="1" vertex="1">
          <mxGeometry x="488" y="169" width="150" height="10" as="geometry" />
        </mxCell>
        <mxCell id="hDsFrdSwKS_vQNClyYp9-92" value="&lt;font style=&quot;font-size: 14px;&quot;&gt;Reporte de entrega&lt;/font&gt;" style="text;html=1;align=center;verticalAlign=middle;whiteSpace=wrap;rounded=0;" parent="1" vertex="1">
          <mxGeometry x="492" y="187" width="150" height="10" as="geometry" />
        </mxCell>
        <mxCell id="hDsFrdSwKS_vQNClyYp9-93" value="&lt;font style=&quot;font-size: 14px;&quot;&gt;Registro de ingreso por proveedor&lt;/font&gt;" style="text;html=1;align=center;verticalAlign=middle;whiteSpace=wrap;rounded=0;" parent="1" vertex="1">
          <mxGeometry x="530" y="226" width="230" height="10" as="geometry" />
        </mxCell>
        <mxCell id="hDsFrdSwKS_vQNClyYp9-94" value="&lt;font style=&quot;font-size: 14px;&quot;&gt;Registro de salida por ventas&lt;/font&gt;" style="text;html=1;align=center;verticalAlign=middle;whiteSpace=wrap;rounded=0;" parent="1" vertex="1">
          <mxGeometry x="540" y="247" width="220" height="10" as="geometry" />
        </mxCell>
        <mxCell id="hDsFrdSwKS_vQNClyYp9-95" value="&lt;font style=&quot;font-size: 14px;&quot;&gt;Datos de stock Actualizado&lt;/font&gt;" style="text;html=1;align=center;verticalAlign=middle;whiteSpace=wrap;rounded=0;" parent="1" vertex="1">
          <mxGeometry x="560" y="267" width="200" height="10" as="geometry" />
        </mxCell>
        <mxCell id="hDsFrdSwKS_vQNClyYp9-96" value="&lt;font style=&quot;font-size: 14px;&quot;&gt;Informe de entrada y salida&lt;/font&gt;" style="text;html=1;align=center;verticalAlign=middle;whiteSpace=wrap;rounded=0;" parent="1" vertex="1">
          <mxGeometry x="543" y="307" width="200" height="10" as="geometry" />
        </mxCell>
        <mxCell id="hDsFrdSwKS_vQNClyYp9-97" value="&lt;font style=&quot;font-size: 14px;&quot;&gt;Disponibilidad para vendedores&lt;/font&gt;" style="text;html=1;align=center;verticalAlign=middle;whiteSpace=wrap;rounded=0;" parent="1" vertex="1">
          <mxGeometry x="544" y="328" width="210" height="10" as="geometry" />
        </mxCell>
        <mxCell id="hDsFrdSwKS_vQNClyYp9-98" value="&lt;font style=&quot;font-size: 14px;&quot;&gt;Normativa Fiscal&lt;/font&gt;" style="text;html=1;align=center;verticalAlign=middle;whiteSpace=wrap;rounded=0;" parent="1" vertex="1">
          <mxGeometry x="630" y="605" width="150" height="10" as="geometry" />
        </mxCell>
        <mxCell id="hDsFrdSwKS_vQNClyYp9-100" value="" style="endArrow=classic;html=1;rounded=0;entryX=0.543;entryY=0;entryDx=0;entryDy=0;entryPerimeter=0;exitX=0.017;exitY=0.117;exitDx=0;exitDy=0;exitPerimeter=0;" parent="1" source="hDsFrdSwKS_vQNClyYp9-6" target="hDsFrdSwKS_vQNClyYp9-1" edge="1">
          <mxGeometry width="50" height="50" relative="1" as="geometry">
            <mxPoint x="720" y="260" as="sourcePoint" />
            <mxPoint x="770" y="210" as="targetPoint" />
            <Array as="points">
              <mxPoint x="400" y="84" />
            </Array>
          </mxGeometry>
        </mxCell>
        <mxCell id="hDsFrdSwKS_vQNClyYp9-101" value="" style="endArrow=classic;html=1;rounded=0;entryX=0.581;entryY=-0.006;entryDx=0;entryDy=0;entryPerimeter=0;exitX=0.017;exitY=0.117;exitDx=0;exitDy=0;exitPerimeter=0;" parent="1" target="hDsFrdSwKS_vQNClyYp9-1" edge="1">
          <mxGeometry width="50" height="50" relative="1" as="geometry">
            <mxPoint x="680" y="100" as="sourcePoint" />
            <mxPoint x="382" y="316" as="targetPoint" />
            <Array as="points">
              <mxPoint x="420" y="100" />
            </Array>
          </mxGeometry>
        </mxCell>
        <mxCell id="hDsFrdSwKS_vQNClyYp9-102" value="" style="endArrow=classic;html=1;rounded=0;exitX=0.017;exitY=0.117;exitDx=0;exitDy=0;exitPerimeter=0;entryX=0.6;entryY=0.022;entryDx=0;entryDy=0;entryPerimeter=0;" parent="1" target="hDsFrdSwKS_vQNClyYp9-1" edge="1">
          <mxGeometry width="50" height="50" relative="1" as="geometry">
            <mxPoint x="680" y="118" as="sourcePoint" />
            <mxPoint x="392" y="317" as="targetPoint" />
            <Array as="points">
              <mxPoint x="430" y="118" />
            </Array>
          </mxGeometry>
        </mxCell>
        <mxCell id="hDsFrdSwKS_vQNClyYp9-103" value="" style="endArrow=classic;html=1;rounded=0;exitX=0.017;exitY=0.117;exitDx=0;exitDy=0;exitPerimeter=0;entryX=0.643;entryY=0.022;entryDx=0;entryDy=0;entryPerimeter=0;" parent="1" target="hDsFrdSwKS_vQNClyYp9-1" edge="1">
          <mxGeometry width="50" height="50" relative="1" as="geometry">
            <mxPoint x="680" y="137" as="sourcePoint" />
            <mxPoint x="393" y="320" as="targetPoint" />
            <Array as="points">
              <mxPoint x="440" y="137" />
            </Array>
          </mxGeometry>
        </mxCell>
        <mxCell id="hDsFrdSwKS_vQNClyYp9-105" value="" style="endArrow=classic;html=1;rounded=0;exitX=0.705;exitY=0.033;exitDx=0;exitDy=0;exitPerimeter=0;" parent="1" source="hDsFrdSwKS_vQNClyYp9-1" edge="1">
          <mxGeometry width="50" height="50" relative="1" as="geometry">
            <mxPoint x="650" y="187" as="sourcePoint" />
            <mxPoint x="700" y="137" as="targetPoint" />
            <Array as="points">
              <mxPoint x="450" y="160" />
              <mxPoint x="690" y="160" />
            </Array>
          </mxGeometry>
        </mxCell>
        <mxCell id="hDsFrdSwKS_vQNClyYp9-106" value="" style="endArrow=classic;html=1;rounded=0;exitX=0.729;exitY=0.044;exitDx=0;exitDy=0;exitPerimeter=0;entryX=0.25;entryY=1;entryDx=0;entryDy=0;" parent="1" source="hDsFrdSwKS_vQNClyYp9-1" target="hDsFrdSwKS_vQNClyYp9-6" edge="1">
          <mxGeometry width="50" height="50" relative="1" as="geometry">
            <mxPoint x="430" y="329" as="sourcePoint" />
            <mxPoint x="712" y="160" as="targetPoint" />
            <Array as="points">
              <mxPoint x="462" y="183" />
              <mxPoint x="702" y="183" />
            </Array>
          </mxGeometry>
        </mxCell>
        <mxCell id="hDsFrdSwKS_vQNClyYp9-107" value="" style="endArrow=classic;html=1;rounded=0;exitX=0.762;exitY=0.056;exitDx=0;exitDy=0;exitPerimeter=0;" parent="1" source="hDsFrdSwKS_vQNClyYp9-1" edge="1">
          <mxGeometry width="50" height="50" relative="1" as="geometry">
            <mxPoint x="430" y="327" as="sourcePoint" />
            <mxPoint x="720" y="140" as="targetPoint" />
            <Array as="points">
              <mxPoint x="469" y="202" />
              <mxPoint x="709" y="202" />
            </Array>
          </mxGeometry>
        </mxCell>
        <mxCell id="hDsFrdSwKS_vQNClyYp9-108" value="" style="endArrow=classic;html=1;rounded=0;exitX=0.5;exitY=0;exitDx=0;exitDy=0;entryX=0.788;entryY=0.088;entryDx=0;entryDy=0;entryPerimeter=0;" parent="1" source="hDsFrdSwKS_vQNClyYp9-7" target="hDsFrdSwKS_vQNClyYp9-1" edge="1">
          <mxGeometry width="50" height="50" relative="1" as="geometry">
            <mxPoint x="740" y="250" as="sourcePoint" />
            <mxPoint x="430" y="310" as="targetPoint" />
            <Array as="points">
              <mxPoint x="820" y="240" />
              <mxPoint x="490" y="240" />
            </Array>
          </mxGeometry>
        </mxCell>
        <mxCell id="hDsFrdSwKS_vQNClyYp9-110" value="" style="endArrow=classic;html=1;rounded=0;exitX=0.403;exitY=-0.004;exitDx=0;exitDy=0;exitPerimeter=0;" parent="1" source="hDsFrdSwKS_vQNClyYp9-7" edge="1">
          <mxGeometry width="50" height="50" relative="1" as="geometry">
            <mxPoint x="800" y="270" as="sourcePoint" />
            <mxPoint x="442" y="318" as="targetPoint" />
            <Array as="points">
              <mxPoint x="808" y="260" />
              <mxPoint x="500" y="260" />
            </Array>
          </mxGeometry>
        </mxCell>
        <mxCell id="hDsFrdSwKS_vQNClyYp9-111" value="" style="endArrow=classic;html=1;rounded=0;entryX=0.857;entryY=0.167;entryDx=0;entryDy=0;entryPerimeter=0;exitX=0;exitY=0.067;exitDx=0;exitDy=0;exitPerimeter=0;" parent="1" source="hDsFrdSwKS_vQNClyYp9-7" target="hDsFrdSwKS_vQNClyYp9-1" edge="1">
          <mxGeometry width="50" height="50" relative="1" as="geometry">
            <mxPoint x="720" y="290" as="sourcePoint" />
            <mxPoint x="570" y="340" as="targetPoint" />
            <Array as="points">
              <mxPoint x="500" y="280" />
            </Array>
          </mxGeometry>
        </mxCell>
        <mxCell id="hDsFrdSwKS_vQNClyYp9-113" value="" style="endArrow=classic;html=1;rounded=0;exitX=0.933;exitY=0.258;exitDx=0;exitDy=0;exitPerimeter=0;entryX=0;entryY=0.75;entryDx=0;entryDy=0;" parent="1" source="hDsFrdSwKS_vQNClyYp9-1" target="hDsFrdSwKS_vQNClyYp9-7" edge="1">
          <mxGeometry width="50" height="50" relative="1" as="geometry">
            <mxPoint x="520" y="390" as="sourcePoint" />
            <mxPoint x="570" y="340" as="targetPoint" />
            <Array as="points">
              <mxPoint x="510" y="321" />
            </Array>
          </mxGeometry>
        </mxCell>
        <mxCell id="hDsFrdSwKS_vQNClyYp9-114" value="" style="endArrow=classic;html=1;rounded=0;entryX=0;entryY=0.75;entryDx=0;entryDy=0;" parent="1" edge="1">
          <mxGeometry width="50" height="50" relative="1" as="geometry">
            <mxPoint x="480" y="360" as="sourcePoint" />
            <mxPoint x="766" y="341.5" as="targetPoint" />
            <Array as="points">
              <mxPoint x="516" y="341.5" />
            </Array>
          </mxGeometry>
        </mxCell>
        <mxCell id="hDsFrdSwKS_vQNClyYp9-117" value="" style="endArrow=classic;html=1;rounded=0;exitX=0.75;exitY=0;exitDx=0;exitDy=0;" parent="1" edge="1">
          <mxGeometry width="50" height="50" relative="1" as="geometry">
            <mxPoint x="850" y="494" as="sourcePoint" />
            <mxPoint x="470" y="428" as="targetPoint" />
            <Array as="points">
              <mxPoint x="840" y="428" />
            </Array>
          </mxGeometry>
        </mxCell>
        <mxCell id="hDsFrdSwKS_vQNClyYp9-118" value="" style="endArrow=classic;html=1;rounded=0;exitX=0.648;exitY=-0.024;exitDx=0;exitDy=0;exitPerimeter=0;entryX=0.939;entryY=0.767;entryDx=0;entryDy=0;entryPerimeter=0;" parent="1" source="hDsFrdSwKS_vQNClyYp9-8" target="hDsFrdSwKS_vQNClyYp9-1" edge="1">
          <mxGeometry width="50" height="50" relative="1" as="geometry">
            <mxPoint x="684" y="453.82" as="sourcePoint" />
            <mxPoint x="465" y="440" as="targetPoint" />
            <Array as="points">
              <mxPoint x="830" y="450" />
              <mxPoint x="510" y="450" />
            </Array>
          </mxGeometry>
        </mxCell>
        <mxCell id="hDsFrdSwKS_vQNClyYp9-119" value="" style="endArrow=classic;html=1;rounded=0;exitX=0.5;exitY=0;exitDx=0;exitDy=0;" parent="1" source="hDsFrdSwKS_vQNClyYp9-8" target="hDsFrdSwKS_vQNClyYp9-1" edge="1">
          <mxGeometry width="50" height="50" relative="1" as="geometry">
            <mxPoint x="740" y="480" as="sourcePoint" />
            <mxPoint x="510" y="480" as="targetPoint" />
            <Array as="points">
              <mxPoint x="820" y="470" />
              <mxPoint x="520" y="470" />
              <mxPoint x="490" y="460" />
            </Array>
          </mxGeometry>
        </mxCell>
        <mxCell id="hDsFrdSwKS_vQNClyYp9-120" value="" style="endArrow=classic;html=1;rounded=0;entryX=0;entryY=0.4;entryDx=0;entryDy=0;entryPerimeter=0;" parent="1" target="hDsFrdSwKS_vQNClyYp9-8" edge="1">
          <mxGeometry width="50" height="50" relative="1" as="geometry">
            <mxPoint x="453" y="451" as="sourcePoint" />
            <mxPoint x="653" y="581" as="targetPoint" />
            <Array as="points">
              <mxPoint x="530" y="520" />
            </Array>
          </mxGeometry>
        </mxCell>
        <mxCell id="hDsFrdSwKS_vQNClyYp9-122" value="" style="endArrow=classic;html=1;rounded=0;entryX=0;entryY=0;entryDx=0;entryDy=0;" parent="1" target="hDsFrdSwKS_vQNClyYp9-8" edge="1">
          <mxGeometry width="50" height="50" relative="1" as="geometry">
            <mxPoint x="456" y="449" as="sourcePoint" />
            <mxPoint x="760" y="490" as="targetPoint" />
            <Array as="points">
              <mxPoint x="530" y="496" />
            </Array>
          </mxGeometry>
        </mxCell>
        <mxCell id="hDsFrdSwKS_vQNClyYp9-123" value="" style="endArrow=classic;html=1;rounded=0;fontStyle=1;entryX=0;entryY=0.75;entryDx=0;entryDy=0;exitX=1;exitY=1;exitDx=0;exitDy=0;" parent="1" source="hDsFrdSwKS_vQNClyYp9-1" target="hDsFrdSwKS_vQNClyYp9-8" edge="1">
          <mxGeometry width="50" height="50" relative="1" as="geometry">
            <mxPoint x="454" y="520" as="sourcePoint" />
            <mxPoint x="654" y="650" as="targetPoint" />
            <Array as="points">
              <mxPoint x="540" y="540" />
            </Array>
          </mxGeometry>
        </mxCell>
        <mxCell id="hDsFrdSwKS_vQNClyYp9-125" value="" style="endArrow=classic;html=1;rounded=0;exitX=0.75;exitY=0;exitDx=0;exitDy=0;" parent="1" source="hDsFrdSwKS_vQNClyYp9-9" edge="1">
          <mxGeometry width="50" height="50" relative="1" as="geometry">
            <mxPoint x="840" y="740" as="sourcePoint" />
            <mxPoint x="430" y="468" as="targetPoint" />
            <Array as="points">
              <mxPoint x="860" y="650" />
              <mxPoint x="550" y="650" />
            </Array>
          </mxGeometry>
        </mxCell>
        <mxCell id="hDsFrdSwKS_vQNClyYp9-126" value="" style="endArrow=classic;html=1;rounded=0;exitX=0.844;exitY=0.002;exitDx=0;exitDy=0;exitPerimeter=0;entryX=0.799;entryY=0.898;entryDx=0;entryDy=0;entryPerimeter=0;" parent="1" target="hDsFrdSwKS_vQNClyYp9-1" edge="1">
          <mxGeometry width="50" height="50" relative="1" as="geometry">
            <mxPoint x="922.2800000000002" y="738.1199999999999" as="sourcePoint" />
            <mxPoint x="441" y="470" as="targetPoint" />
            <Array as="points">
              <mxPoint x="872" y="620" />
              <mxPoint x="561" y="620" />
            </Array>
          </mxGeometry>
        </mxCell>
        <mxCell id="hDsFrdSwKS_vQNClyYp9-127" value="" style="endArrow=classic;html=1;rounded=0;exitX=0.633;exitY=0.041;exitDx=0;exitDy=0;exitPerimeter=0;" parent="1" source="hDsFrdSwKS_vQNClyYp9-9" edge="1">
          <mxGeometry width="50" height="50" relative="1" as="geometry">
            <mxPoint x="480" y="700" as="sourcePoint" />
            <mxPoint x="420" y="474" as="targetPoint" />
            <Array as="points">
              <mxPoint x="850" y="680" />
              <mxPoint x="550" y="680" />
            </Array>
          </mxGeometry>
        </mxCell>
        <mxCell id="hDsFrdSwKS_vQNClyYp9-128" value="" style="endArrow=classic;html=1;rounded=0;" parent="1" edge="1">
          <mxGeometry width="50" height="50" relative="1" as="geometry">
            <mxPoint x="870" y="736" as="sourcePoint" />
            <mxPoint x="414" y="475" as="targetPoint" />
            <Array as="points">
              <mxPoint x="850" y="710" />
              <mxPoint x="550" y="710" />
            </Array>
          </mxGeometry>
        </mxCell>
        <mxCell id="hDsFrdSwKS_vQNClyYp9-129" value="" style="endArrow=classic;html=1;rounded=0;entryX=0;entryY=0;entryDx=0;entryDy=0;exitX=0.586;exitY=1.009;exitDx=0;exitDy=0;exitPerimeter=0;" parent="1" source="hDsFrdSwKS_vQNClyYp9-1" edge="1">
          <mxGeometry width="50" height="50" relative="1" as="geometry">
            <mxPoint x="570" y="774" as="sourcePoint" />
            <mxPoint x="810" y="771.9999999999998" as="targetPoint" />
            <Array as="points">
              <mxPoint x="550" y="772" />
            </Array>
          </mxGeometry>
        </mxCell>
        <mxCell id="hDsFrdSwKS_vQNClyYp9-130" value="" style="endArrow=classic;html=1;rounded=0;entryX=0;entryY=0;entryDx=0;entryDy=0;" parent="1" edge="1">
          <mxGeometry width="50" height="50" relative="1" as="geometry">
            <mxPoint x="390" y="480" as="sourcePoint" />
            <mxPoint x="810" y="798" as="targetPoint" />
            <Array as="points">
              <mxPoint x="550" y="800" />
            </Array>
          </mxGeometry>
        </mxCell>
        <mxCell id="hDsFrdSwKS_vQNClyYp9-132" value="" style="endArrow=classic;html=1;rounded=0;entryX=-0.024;entryY=0.139;entryDx=0;entryDy=0;exitX=0.62;exitY=1.009;exitDx=0;exitDy=0;exitPerimeter=0;entryPerimeter=0;" parent="1" source="hDsFrdSwKS_vQNClyYp9-1" target="hDsFrdSwKS_vQNClyYp9-9" edge="1">
          <mxGeometry width="50" height="50" relative="1" as="geometry">
            <mxPoint x="520" y="748.0000000000002" as="sourcePoint" />
            <mxPoint x="760" y="746" as="targetPoint" />
            <Array as="points">
              <mxPoint x="550" y="746" />
            </Array>
          </mxGeometry>
        </mxCell>
        <mxCell id="hDsFrdSwKS_vQNClyYp9-133" value="&lt;font style=&quot;font-size: 14px;&quot;&gt;Notificacion de Pago Aprobado&lt;/font&gt;" style="text;html=1;align=center;verticalAlign=middle;whiteSpace=wrap;rounded=0;" parent="1" vertex="1">
          <mxGeometry x="567" y="413.5" width="230" height="10" as="geometry" />
        </mxCell>
        <mxCell id="hDsFrdSwKS_vQNClyYp9-134" value="&lt;font style=&quot;font-size: 14px;&quot;&gt;Estado de cuenta&lt;/font&gt;" style="text;html=1;align=center;verticalAlign=middle;whiteSpace=wrap;rounded=0;" parent="1" vertex="1">
          <mxGeometry x="597" y="437.5" width="150" height="10" as="geometry" />
        </mxCell>
        <mxCell id="hDsFrdSwKS_vQNClyYp9-135" value="&lt;font style=&quot;font-size: 14px;&quot;&gt;Confirmacion de recepcion del dinero&lt;/font&gt;" style="text;html=1;align=center;verticalAlign=middle;whiteSpace=wrap;rounded=0;" parent="1" vertex="1">
          <mxGeometry x="536" y="456.5" width="260" height="10" as="geometry" />
        </mxCell>
        <mxCell id="hDsFrdSwKS_vQNClyYp9-136" value="&lt;font style=&quot;font-size: 14px;&quot;&gt;Solicitud de Validacion de Pago&lt;/font&gt;" style="text;html=1;align=center;verticalAlign=middle;whiteSpace=wrap;rounded=0;" parent="1" vertex="1">
          <mxGeometry x="520" y="480" width="240" height="10" as="geometry" />
        </mxCell>
        <mxCell id="hDsFrdSwKS_vQNClyYp9-137" value="&lt;font style=&quot;font-size: 14px;&quot;&gt;Monto a Cobrar&lt;/font&gt;" style="text;html=1;align=center;verticalAlign=middle;whiteSpace=wrap;rounded=0;" parent="1" vertex="1">
          <mxGeometry x="567" y="505.5" width="150" height="10" as="geometry" />
        </mxCell>
        <mxCell id="hDsFrdSwKS_vQNClyYp9-138" value="&lt;font style=&quot;font-size: 14px;&quot;&gt;Datos Del cliente&lt;/font&gt;" style="text;html=1;align=center;verticalAlign=middle;whiteSpace=wrap;rounded=0;" parent="1" vertex="1">
          <mxGeometry x="568" y="528.5" width="150" height="10" as="geometry" />
        </mxCell>
        <mxCell id="hDsFrdSwKS_vQNClyYp9-139" value="&lt;font style=&quot;font-size: 14px;&quot;&gt;Validacion NIT&lt;/font&gt;" style="text;html=1;align=center;verticalAlign=middle;whiteSpace=wrap;rounded=0;" parent="1" vertex="1">
          <mxGeometry x="630" y="636" width="150" height="10" as="geometry" />
        </mxCell>
        <mxCell id="hDsFrdSwKS_vQNClyYp9-140" value="&lt;font style=&quot;font-size: 14px;&quot;&gt;Verificacion de Impuestos&lt;/font&gt;" style="text;html=1;align=center;verticalAlign=middle;whiteSpace=wrap;rounded=0;" parent="1" vertex="1">
          <mxGeometry x="630" y="666" width="190" height="10" as="geometry" />
        </mxCell>
        <mxCell id="hDsFrdSwKS_vQNClyYp9-141" value="&lt;font style=&quot;font-size: 14px;&quot;&gt;Datos del contribuyente&lt;/font&gt;" style="text;html=1;align=center;verticalAlign=middle;whiteSpace=wrap;rounded=0;" parent="1" vertex="1">
          <mxGeometry x="630" y="695" width="150" height="10" as="geometry" />
        </mxCell>
        <mxCell id="hDsFrdSwKS_vQNClyYp9-142" value="&lt;font style=&quot;font-size: 14px;&quot;&gt;Reporte de Ventas&lt;/font&gt;" style="text;html=1;align=center;verticalAlign=middle;whiteSpace=wrap;rounded=0;" parent="1" vertex="1">
          <mxGeometry x="630" y="729" width="150" height="10" as="geometry" />
        </mxCell>
        <mxCell id="hDsFrdSwKS_vQNClyYp9-143" value="&lt;font style=&quot;font-size: 14px;&quot;&gt;Declaracion de impuestos&lt;/font&gt;" style="text;html=1;align=center;verticalAlign=middle;whiteSpace=wrap;rounded=0;" parent="1" vertex="1">
          <mxGeometry x="595" y="757" width="210" height="10" as="geometry" />
        </mxCell>
        <mxCell id="hDsFrdSwKS_vQNClyYp9-144" value="&lt;font style=&quot;font-size: 14px;&quot;&gt;Resumen de Movimientos contables&lt;/font&gt;" style="text;html=1;align=center;verticalAlign=middle;whiteSpace=wrap;rounded=0;" parent="1" vertex="1">
          <mxGeometry x="549" y="783" width="250" height="10" as="geometry" />
        </mxCell>
        <mxCell id="hDsFrdSwKS_vQNClyYp9-147" value="&lt;font style=&quot;font-size: 24px;&quot;&gt;&lt;b&gt;NIVEL 0&lt;/b&gt;&lt;/font&gt;" style="text;html=1;align=center;verticalAlign=middle;whiteSpace=wrap;rounded=0;fillColor=#FFE599;" parent="1" vertex="1">
          <mxGeometry x="230" width="240" height="30" as="geometry" />
        </mxCell>
      </root>
    </mxGraphModel>
  </diagram>
  <diagram id="VrOgX9kRIFBWIT_i94v_" name="Página-2">
    <mxGraphModel grid="1" page="1" gridSize="10" guides="1" tooltips="1" connect="1" arrows="1" fold="1" pageScale="1" pageWidth="827" pageHeight="1169" math="0" shadow="0">
      <root>
        <mxCell id="0" />
        <mxCell id="1" parent="0" />
      </root>
    </mxGraphModel>
  </diagram>
</mxfile>
